<?xml version="1.0" encoding="utf-8"?>
<!-- Generator: Adobe Illustrator 16.0.0, SVG Export Plug-In . SVG Version: 6.00 Build 0)  -->
<!DOCTYPE svg PUBLIC "-//W3C//DTD SVG 1.1//EN" "http://www.w3.org/Graphics/SVG/1.1/DTD/svg11.dtd">
<svg version="1.1" id="Layer_1" xmlns="http://www.w3.org/2000/svg" xmlns:xlink="http://www.w3.org/1999/xlink" x="0px" y="0px"
	 width="133.3px" height="30.4px" viewBox="0 0 133.3 30.4" style="enable-background:new 0 0 133.3 30.4;" xml:space="preserve">
<style type="text/css">
<![CDATA[
	.st0{fill:#36C7D0;}
]]>
</style>
<path class="st0" d="M12.5,1.3c-2.7,0-5.2,1-7.2,2.5V1.3H0v29.1h5.2v-8.5c2,1.6,4.5,2.5,7.2,2.5c6.4,0,11.5-5.2,11.5-11.5
	C24,6.5,18.8,1.3,12.5,1.3z M12.5,18.4c-3.1,0-5.6-2.5-5.6-5.6s2.5-5.6,5.6-5.6S18,9.8,18,12.8S15.5,18.4,12.5,18.4z"/>
<path class="st0" d="M98.1,1.3v2.8c-2-1.8-4.7-2.8-7.6-2.8c-6.4,0-11.5,5.2-11.5,11.5c0,6.4,5.2,11.5,11.5,11.5
	c2.9,0,5.5-1.1,7.6-2.8v2.8h5.2V1.3H98.1z M90.5,18.4c-3.1,0-5.6-2.5-5.6-5.6s2.5-5.6,5.6-5.6s5.6,2.5,5.6,5.6S93.6,18.4,90.5,18.4z
	"/>
<path class="st0" d="M69.6,15.5c-0.9,1.7-2.8,2.9-4.9,2.9c-3.1,0-5.6-2.5-5.6-5.6s2.5-5.6,5.6-5.6c2.1,0,3.9,1.2,4.9,2.9h6.4
	c-1.2-5.1-5.8-8.9-11.2-8.9c-6.4,0-11.5,5.2-11.5,11.5c0,6.4,5.2,11.5,11.5,11.5c5.5,0,10.1-3.8,11.2-8.9H69.6z"/>
<path class="st0" d="M122,12.5c-1-1.1-2.9-2.2-5.8-3.4c-2.4-1-2.7-1.8-2.7-2.1c0-0.4,0.1-0.6,0.4-0.9c0.2-0.2,0.5-0.3,0.9-0.3
	c0.8,0,1.5,0.6,2.1,1.8L117,8l5.2-2.8L122,4.8c-1.5-3.2-3.8-4.8-6.9-4.8c-2.1,0-3.9,0.7-5.4,2.1c-1.5,1.4-2.2,3.2-2.2,5.3
	c0,1.6,0.4,3,1.3,4c0.7,0.8,1.8,1.6,3.4,2.4c0.5,0.3,1.1,0.5,1.6,0.8c0.5,0.2,1.1,0.5,1.5,0.7c1.2,0.7,1.8,1.4,1.8,2.2
	c0,1.3-0.7,1.9-2.2,1.9c-0.8,0-1.4-0.2-2-0.8c-0.2-0.2-0.6-0.7-1.3-2l-0.2-0.4l-5.3,2.5l0.2,0.4c1.7,3.9,4.5,5.9,8.6,5.9
	c2.3,0,4.4-0.7,6-2.2c1.7-1.6,2.6-3.5,2.6-5.9C123.6,15.1,123,13.6,122,12.5z"/>
<path class="st0" d="M38.9,1.3c-6.4,0-11.5,5.2-11.5,11.5c0,6.4,5.2,11.5,11.5,11.5c4.1,0,7.7-2.1,9.7-5.3l-5.3-2.9
	c-1,1.4-2.6,2.3-4.5,2.3c-2.4,0-4.4-1.5-5.2-3.6h10.4h5.5h0.6c0.1-0.6,0.2-1.3,0.2-2C50.4,6.5,45.3,1.3,38.9,1.3z M38.9,7.3
	c1.9,0,3.5,0.9,4.5,2.3h-9C35.4,8.2,37,7.3,38.9,7.3z"/>
<circle class="st0" cx="130.4" cy="22.1" r="3"/>
</svg>
